<svg width="371" height="162" viewBox="0 0 371 162" fill="none" xmlns="http://www.w3.org/2000/svg">
<path d="M23.485 1.09091H62.6682L82.4836 82.142H84.0177L130.68 1.09091H169.863L148.13 132H117.32L130.68 51.5881H129.593L84.9765 131.169H65.3529L47.1995 51.1406H46.1128L32.5617 132H1.75202L23.485 1.09091Z" fill="#0FA958"/>
<path d="M167.132 23.9105V1.09091H274.646V23.9105H234.568V132H207.21V23.9105H167.132Z" fill="#F24E1E"/>
<rect x="238" y="79" width="17" height="52" fill="#0FA958"/>
<rect x="267" y="49" width="16" height="82" fill="#0FA958"/>
<rect x="296" y="36" width="16" height="95" fill="#0FA958"/>
<rect x="325" y="79" width="16" height="52" fill="#F24E1E"/>
<rect x="354" width="16" height="131" fill="#0FA958"/>
<path d="M1.87601 161V159.152H2.33801C3.01001 159.152 3.61201 159.11 4.14401 159.026C4.67601 158.914 5.09601 158.732 5.40401 158.48C5.71201 158.228 5.86601 157.878 5.86601 157.43V134.54C5.86601 134.12 5.71201 133.812 5.40401 133.616C5.09601 133.392 4.67601 133.238 4.14401 133.154C3.61201 133.07 3.01001 133.028 2.33801 133.028H1.87601V131.18H11.746L20.23 157.472L19.432 157.388L28.21 131.18H37.87V133.028H37.45C36.442 133.028 35.602 133.126 34.93 133.322C34.258 133.518 33.922 133.924 33.922 134.54V157.64C33.922 158.256 34.258 158.662 34.93 158.858C35.602 159.054 36.442 159.152 37.45 159.152H37.87V161H26.404V159.152H26.782C27.314 159.152 27.818 159.138 28.294 159.11C28.798 159.082 29.204 159.04 29.512 158.984C29.848 158.9 30.016 158.816 30.016 158.732V131.936L30.436 132.02L20.44 161.084H17.962L7.96601 132.02L8.42801 132.062V158.564C8.42801 158.704 8.59601 158.816 8.93201 158.9C9.29601 158.984 9.74401 159.054 10.276 159.11C10.808 159.138 11.312 159.152 11.788 159.152H12.04V161H1.87601ZM61.876 150.29C61.876 152.474 61.4 154.406 60.448 156.086C59.524 157.766 58.236 159.082 56.584 160.034C54.932 160.958 53.042 161.42 50.914 161.42C48.786 161.42 46.896 160.958 45.244 160.034C43.592 159.082 42.29 157.766 41.338 156.086C40.414 154.406 39.952 152.474 39.952 150.29C39.952 148.666 40.218 147.182 40.75 145.838C41.282 144.466 42.038 143.29 43.018 142.31C44.026 141.302 45.188 140.532 46.504 140C47.848 139.44 49.318 139.16 50.914 139.16C52.51 139.16 53.966 139.44 55.282 140C56.626 140.532 57.788 141.302 58.768 142.31C59.776 143.29 60.546 144.466 61.078 145.838C61.61 147.182 61.876 148.666 61.876 150.29ZM43.9 150.29C43.9 152.082 44.18 153.65 44.74 154.994C45.3 156.338 46.098 157.374 47.134 158.102C48.198 158.83 49.458 159.194 50.914 159.194C52.37 159.194 53.616 158.83 54.652 158.102C55.688 157.374 56.486 156.338 57.046 154.994C57.634 153.65 57.928 152.082 57.928 150.29C57.928 148.498 57.634 146.93 57.046 145.586C56.486 144.242 55.688 143.206 54.652 142.478C53.616 141.75 52.37 141.386 50.914 141.386C49.458 141.386 48.198 141.764 47.134 142.52C46.098 143.248 45.3 144.284 44.74 145.628C44.18 146.944 43.9 148.498 43.9 150.29ZM64.0728 161V159.236H64.1568C65.1648 159.236 65.9768 159.138 66.5928 158.942C67.2368 158.746 67.5588 158.34 67.5588 157.724V143.36C67.5588 142.94 67.4468 142.632 67.2228 142.436C66.9988 142.212 66.6628 142.03 66.2148 141.89C65.7668 141.75 65.1928 141.61 64.4928 141.47L64.0728 141.386V139.58H70.9188V143.948L71.2968 144.452V158.816C71.2968 158.9 71.4508 158.984 71.7588 159.068C72.0948 159.124 72.4868 159.166 72.9348 159.194C73.3828 159.222 73.7888 159.236 74.1528 159.236H74.2368V161H64.0728ZM86.7528 161H77.0928V159.236H77.1768C77.5688 159.236 77.9748 159.222 78.3948 159.194C78.8428 159.166 79.2208 159.124 79.5288 159.068C79.8648 158.984 80.0328 158.9 80.0328 158.816V146.342C80.0328 145.25 79.9348 144.354 79.7388 143.654C79.5708 142.954 79.2628 142.45 78.8148 142.142C78.3948 141.806 77.8068 141.638 77.0508 141.638C76.1828 141.638 75.3708 141.834 74.6148 142.226C73.8868 142.618 73.1868 143.178 72.5148 143.906C71.8708 144.606 71.2268 145.502 70.5828 146.594L70.4568 143.99C71.1568 142.926 71.8568 142.044 72.5568 141.344C73.2848 140.644 74.0688 140.112 74.9088 139.748C75.7488 139.356 76.6868 139.16 77.7228 139.16C78.9268 139.16 79.9768 139.398 80.8728 139.874C81.7968 140.35 82.5108 141.092 83.0148 142.1C83.5188 143.08 83.7708 144.354 83.7708 145.922V158.816C83.7708 158.9 83.9248 158.984 84.2328 159.068C84.5688 159.124 84.9608 159.166 85.4088 159.194C85.8848 159.222 86.3188 159.236 86.7108 159.236H86.7528V161ZM99.8148 161H89.6088V159.236H89.7348C90.0988 159.236 90.4908 159.222 90.9108 159.194C91.3588 159.138 91.7368 159.082 92.0448 159.026C92.3808 158.97 92.5488 158.9 92.5488 158.816V146.342C92.5488 145.25 92.4508 144.354 92.2548 143.654C92.0588 142.954 91.7368 142.45 91.2888 142.142C90.8688 141.806 90.2808 141.638 89.5248 141.638C88.6848 141.638 87.8868 141.834 87.1308 142.226C86.3748 142.618 85.6608 143.178 84.9888 143.906C84.3448 144.634 83.7008 145.53 83.0568 146.594L82.9308 143.99C83.6308 142.926 84.3308 142.044 85.0308 141.344C85.7588 140.644 86.5428 140.112 87.3828 139.748C88.2228 139.356 89.1748 139.16 90.2388 139.16C91.4148 139.16 92.4508 139.398 93.3468 139.874C94.2428 140.35 94.9568 141.092 95.4888 142.1C96.0208 143.08 96.2868 144.354 96.2868 145.922V157.724C96.2868 158.34 96.6088 158.746 97.2528 158.942C97.8968 159.138 98.7228 159.236 99.7308 159.236H99.8148V161ZM105.196 150.458C105.196 151.858 105.378 153.104 105.742 154.196C106.106 155.26 106.61 156.17 107.254 156.926C107.898 157.682 108.654 158.256 109.522 158.648C110.418 159.012 111.384 159.194 112.42 159.194C113.568 159.194 114.548 158.984 115.36 158.564C116.2 158.116 116.914 157.57 117.502 156.926C118.09 156.254 118.58 155.582 118.972 154.91L120.82 156.506C120.288 157.43 119.616 158.27 118.804 159.026C118.02 159.782 117.096 160.37 116.032 160.79C114.968 161.21 113.722 161.42 112.294 161.42C110.25 161.42 108.402 160.972 106.75 160.076C105.098 159.18 103.796 157.906 102.844 156.254C101.892 154.574 101.416 152.614 101.416 150.374C101.416 148.162 101.864 146.216 102.76 144.536C103.656 142.856 104.874 141.54 106.414 140.588C107.954 139.636 109.662 139.16 111.538 139.16C113.05 139.16 114.38 139.412 115.528 139.916C116.704 140.42 117.684 141.162 118.468 142.142C119.28 143.122 119.896 144.354 120.316 145.838C120.736 147.322 120.946 149.044 120.946 151.004H104.398V148.82H118.174L116.998 149.66C116.97 148.26 116.844 147.042 116.62 146.006C116.396 144.97 116.06 144.116 115.612 143.444C115.164 142.744 114.604 142.226 113.932 141.89C113.26 141.554 112.462 141.386 111.538 141.386C110.642 141.386 109.816 141.596 109.06 142.016C108.304 142.436 107.632 143.038 107.044 143.822C106.456 144.606 105.994 145.558 105.658 146.678C105.35 147.798 105.196 149.058 105.196 150.458ZM122.83 161V159.236H122.914C123.586 159.236 124.174 159.194 124.678 159.11C125.182 159.026 125.574 158.872 125.854 158.648C126.162 158.424 126.316 158.116 126.316 157.724V143.36C126.316 142.94 126.204 142.632 125.98 142.436C125.756 142.212 125.42 142.03 124.972 141.89C124.524 141.75 123.95 141.61 123.25 141.47L122.83 141.386V139.58H129.718V144.032L130.054 144.494V158.816C130.054 158.9 130.222 158.97 130.558 159.026C130.894 159.082 131.3 159.138 131.776 159.194C132.252 159.222 132.686 159.236 133.078 159.236H133.204V161H122.83ZM147.316 161H136.942V159.236H137.026C137.418 159.236 137.852 159.222 138.328 159.194C138.804 159.166 139.21 159.124 139.546 159.068C139.91 158.984 140.092 158.9 140.092 158.816V146.3C140.092 145.208 139.966 144.326 139.714 143.654C139.49 142.954 139.112 142.45 138.58 142.142C138.076 141.806 137.376 141.638 136.48 141.638C135.556 141.638 134.674 141.834 133.834 142.226C132.994 142.59 132.196 143.136 131.44 143.864C130.712 144.592 130.012 145.502 129.34 146.594L129.214 144.074C129.97 142.982 130.74 142.072 131.524 141.344C132.308 140.616 133.162 140.07 134.086 139.706C135.01 139.342 136.046 139.16 137.194 139.16C138.538 139.16 139.7 139.412 140.68 139.916C141.66 140.392 142.43 141.134 142.99 142.142C143.55 143.122 143.83 144.382 143.83 145.922V157.724C143.83 158.116 143.97 158.424 144.25 158.648C144.558 158.872 144.964 159.026 145.468 159.11C145.972 159.194 146.56 159.236 147.232 159.236H147.316V161ZM147.383 141.806V139.79H147.551C148.419 139.79 149.147 139.734 149.735 139.622C150.351 139.482 150.813 139.244 151.121 138.908C151.429 138.572 151.583 138.096 151.583 137.48L154.103 139.58H161.159V141.806H147.383ZM154.901 153.944C154.901 155.176 155.055 156.17 155.363 156.926C155.699 157.682 156.147 158.228 156.707 158.564C157.295 158.9 157.981 159.068 158.765 159.068C159.353 159.068 159.899 159.012 160.403 158.9C160.935 158.76 161.355 158.648 161.663 158.564V160.79C161.411 160.902 161.103 161 160.739 161.084C160.403 161.196 160.025 161.28 159.605 161.336C159.213 161.392 158.793 161.42 158.345 161.42C157.113 161.42 155.951 161.196 154.859 160.748C153.767 160.3 152.871 159.544 152.171 158.48C151.499 157.388 151.163 155.876 151.163 153.944V140.126L151.541 139.832L151.625 133.784H154.901V153.944ZM169.478 139.58V154.238C169.478 155.33 169.59 156.226 169.814 156.926C170.038 157.626 170.416 158.144 170.948 158.48C171.48 158.816 172.18 158.984 173.048 158.984C173.972 158.984 174.84 158.802 175.652 158.438C176.464 158.046 177.234 157.486 177.962 156.758C178.69 156.03 179.39 155.134 180.062 154.07L180.146 156.632C179.418 157.668 178.662 158.55 177.878 159.278C177.122 159.978 176.296 160.51 175.4 160.874C174.504 161.238 173.496 161.42 172.376 161.42C171.06 161.42 169.898 161.182 168.89 160.706C167.882 160.23 167.098 159.488 166.538 158.48C166.006 157.472 165.74 156.198 165.74 154.658V143.36C165.74 142.744 165.488 142.324 164.984 142.1C164.48 141.848 163.71 141.638 162.674 141.47L162.17 141.386V139.58H169.478ZM183.044 139.58V157.724C183.044 158.116 183.198 158.424 183.506 158.648C183.814 158.872 184.22 159.026 184.724 159.11C185.228 159.194 185.816 159.236 186.488 159.236H186.614V161H179.684V156.674L179.306 156.128V143.36C179.306 142.744 179.054 142.324 178.55 142.1C178.046 141.848 177.248 141.652 176.156 141.512L175.232 141.386V139.58H183.044ZM187.751 161V159.236H187.835C188.843 159.236 189.655 159.138 190.271 158.942C190.915 158.746 191.237 158.34 191.237 157.724V143.36C191.237 142.94 191.125 142.632 190.901 142.436C190.677 142.212 190.341 142.03 189.893 141.89C189.445 141.75 188.871 141.61 188.171 141.47L187.751 141.386V139.58H194.597V143.948L194.975 144.452V158.816C194.975 158.9 195.129 158.984 195.437 159.068C195.773 159.124 196.165 159.166 196.613 159.194C197.061 159.222 197.467 159.236 197.831 159.236H197.915V161H187.751ZM210.431 161H200.771V159.236H200.855C201.247 159.236 201.653 159.222 202.073 159.194C202.521 159.166 202.899 159.124 203.207 159.068C203.543 158.984 203.711 158.9 203.711 158.816V146.342C203.711 145.25 203.613 144.354 203.417 143.654C203.249 142.954 202.941 142.45 202.493 142.142C202.073 141.806 201.485 141.638 200.729 141.638C199.861 141.638 199.049 141.834 198.293 142.226C197.565 142.618 196.865 143.178 196.193 143.906C195.549 144.606 194.905 145.502 194.261 146.594L194.135 143.99C194.835 142.926 195.535 142.044 196.235 141.344C196.963 140.644 197.747 140.112 198.587 139.748C199.427 139.356 200.365 139.16 201.401 139.16C202.605 139.16 203.655 139.398 204.551 139.874C205.475 140.35 206.189 141.092 206.693 142.1C207.197 143.08 207.449 144.354 207.449 145.922V158.816C207.449 158.9 207.603 158.984 207.911 159.068C208.247 159.124 208.639 159.166 209.087 159.194C209.563 159.222 209.997 159.236 210.389 159.236H210.431V161ZM223.493 161H213.287V159.236H213.413C213.777 159.236 214.169 159.222 214.589 159.194C215.037 159.138 215.415 159.082 215.723 159.026C216.059 158.97 216.227 158.9 216.227 158.816V146.342C216.227 145.25 216.129 144.354 215.933 143.654C215.737 142.954 215.415 142.45 214.967 142.142C214.547 141.806 213.959 141.638 213.203 141.638C212.363 141.638 211.565 141.834 210.809 142.226C210.053 142.618 209.339 143.178 208.667 143.906C208.023 144.634 207.379 145.53 206.735 146.594L206.609 143.99C207.309 142.926 208.009 142.044 208.709 141.344C209.437 140.644 210.221 140.112 211.061 139.748C211.901 139.356 212.853 139.16 213.917 139.16C215.093 139.16 216.129 139.398 217.025 139.874C217.921 140.35 218.635 141.092 219.167 142.1C219.699 143.08 219.965 144.354 219.965 145.922V157.724C219.965 158.34 220.287 158.746 220.931 158.942C221.575 159.138 222.401 159.236 223.409 159.236H223.493V161ZM235.133 157.64V133.364H232.697C231.493 133.364 230.513 133.42 229.757 133.532C229.001 133.616 228.441 133.798 228.077 134.078C227.713 134.358 227.489 134.764 227.405 135.296L226.943 139.328H224.801V131.18H249.371V139.328H247.229L246.767 135.296C246.739 134.764 246.529 134.358 246.137 134.078C245.773 133.798 245.213 133.616 244.457 133.532C243.701 133.42 242.721 133.364 241.517 133.364H239.039V157.64C239.039 158.256 239.375 158.662 240.047 158.858C240.719 159.054 241.559 159.152 242.567 159.152H243.239V161H230.933V159.152H231.605C232.613 159.152 233.453 159.054 234.125 158.858C234.797 158.662 235.133 158.256 235.133 157.64ZM265.637 139.286V143.024C265.441 142.94 265.203 142.884 264.923 142.856C264.671 142.8 264.405 142.758 264.125 142.73C263.845 142.702 263.579 142.688 263.327 142.688C262.571 142.688 261.913 142.786 261.353 142.982C260.821 143.178 260.331 143.486 259.883 143.906C259.463 144.326 259.071 144.858 258.707 145.502C258.343 146.118 257.965 146.874 257.573 147.77L257.489 145.25C257.937 144.046 258.469 142.996 259.085 142.1C259.729 141.176 260.471 140.462 261.311 139.958C262.179 139.426 263.145 139.16 264.209 139.16C264.517 139.16 264.797 139.174 265.049 139.202C265.301 139.202 265.497 139.23 265.637 139.286ZM250.979 161V159.236H251.063C252.043 159.236 252.855 159.138 253.499 158.942C254.143 158.746 254.465 158.34 254.465 157.724V143.36C254.465 142.94 254.353 142.632 254.129 142.436C253.905 142.212 253.569 142.03 253.121 141.89C252.673 141.75 252.099 141.61 251.399 141.47L250.979 141.386V139.58H257.867V145.712L258.203 145.334V157.934C258.203 158.326 258.399 158.62 258.791 158.816C259.183 158.984 259.645 159.096 260.177 159.152C260.709 159.208 261.185 159.236 261.605 159.236H262.361V161H250.979ZM281.193 148.106L281.151 150.08C279.751 150.22 278.505 150.402 277.413 150.626C276.321 150.85 275.369 151.116 274.557 151.424C273.745 151.732 273.087 152.096 272.583 152.516C272.079 152.936 271.687 153.426 271.407 153.986C271.155 154.518 271.029 155.106 271.029 155.75C271.029 156.478 271.183 157.108 271.491 157.64C271.799 158.144 272.233 158.55 272.793 158.858C273.381 159.138 274.039 159.278 274.767 159.278C275.747 159.278 276.615 159.04 277.371 158.564C278.127 158.088 278.799 157.43 279.387 156.59C280.003 155.75 280.535 154.77 280.983 153.65L281.109 156.17C280.689 157.234 280.115 158.158 279.387 158.942C278.687 159.726 277.875 160.342 276.951 160.79C276.027 161.21 274.963 161.42 273.759 161.42C272.555 161.42 271.449 161.196 270.441 160.748C269.461 160.3 268.663 159.656 268.047 158.816C267.459 157.948 267.165 156.94 267.165 155.792C267.165 154.644 267.459 153.65 268.047 152.81C268.663 151.97 269.559 151.242 270.735 150.626C271.911 150.01 273.367 149.506 275.103 149.114C276.867 148.694 278.897 148.358 281.193 148.106ZM280.437 161V156.548L280.017 156.506V146.174C280.017 144.97 279.849 144.018 279.513 143.318C279.205 142.618 278.743 142.128 278.127 141.848C277.511 141.54 276.741 141.386 275.817 141.386C274.417 141.386 273.269 141.68 272.373 142.268C271.477 142.828 270.749 143.5 270.189 144.284C270.161 143.92 270.189 143.584 270.273 143.276C270.385 142.968 270.525 142.702 270.693 142.478C270.861 142.254 271.071 142.072 271.323 141.932C271.575 141.764 271.841 141.638 272.121 141.554V145.922H268.509V141.68C268.901 141.344 269.447 140.98 270.147 140.588C270.875 140.196 271.743 139.86 272.751 139.58C273.759 139.3 274.865 139.16 276.069 139.16C277.077 139.16 278.029 139.286 278.925 139.538C279.849 139.762 280.675 140.14 281.403 140.672C282.131 141.176 282.691 141.862 283.083 142.73C283.503 143.57 283.713 144.62 283.713 145.88V157.724C283.713 158.116 283.867 158.424 284.175 158.648C284.483 158.872 284.889 159.026 285.393 159.11C285.925 159.194 286.513 159.236 287.157 159.236V161H280.437ZM299.219 159.194C300.451 159.194 301.515 158.97 302.411 158.522C303.307 158.074 304.063 157.5 304.679 156.8C305.323 156.1 305.869 155.414 306.317 154.742L308.039 156.338C307.451 157.29 306.737 158.158 305.897 158.942C305.085 159.698 304.119 160.3 302.999 160.748C301.879 161.196 300.563 161.42 299.051 161.42C296.867 161.42 294.935 160.944 293.255 159.992C291.603 159.04 290.315 157.724 289.391 156.044C288.495 154.364 288.047 152.446 288.047 150.29C288.047 148.078 288.523 146.146 289.475 144.494C290.427 142.842 291.757 141.54 293.465 140.588C295.201 139.636 297.203 139.16 299.471 139.16C300.843 139.16 302.061 139.314 303.125 139.622C304.217 139.93 305.141 140.294 305.897 140.714C306.681 141.106 307.269 141.498 307.661 141.89V146.93H303.965V142.142C304.273 142.198 304.553 142.296 304.805 142.436C305.057 142.548 305.267 142.716 305.435 142.94C305.631 143.164 305.771 143.416 305.855 143.696C305.939 143.976 305.939 144.284 305.855 144.62C305.379 143.696 304.553 142.926 303.377 142.31C302.201 141.694 300.899 141.386 299.471 141.386C297.819 141.386 296.433 141.764 295.313 142.52C294.193 143.276 293.353 144.326 292.793 145.67C292.261 147.014 291.995 148.554 291.995 150.29C291.995 151.606 292.149 152.81 292.457 153.902C292.793 154.994 293.269 155.946 293.885 156.758C294.501 157.542 295.257 158.144 296.153 158.564C297.049 158.984 298.071 159.194 299.219 159.194ZM333.647 161H322.979V159.236H323.105C323.469 159.236 323.875 159.222 324.323 159.194C324.799 159.138 325.191 159.082 325.499 159.026C325.835 158.942 326.003 158.858 326.003 158.774L318.023 149.702V149.492L325.751 142.184C325.751 141.96 325.555 141.792 325.163 141.68C324.799 141.568 324.365 141.498 323.861 141.47C323.357 141.414 322.895 141.386 322.475 141.386H322.223V139.58H332.345V141.386H332.261C331.729 141.386 331.183 141.456 330.623 141.596C330.091 141.708 329.559 141.918 329.027 142.226C328.523 142.534 328.019 142.926 327.515 143.402L320.879 149.702L321.005 147.938L329.657 157.64C330.077 158.06 330.497 158.382 330.917 158.606C331.337 158.83 331.771 158.998 332.219 159.11C332.695 159.194 333.157 159.236 333.605 159.236H333.647V161ZM316.973 130.004V158.816C316.973 158.9 317.141 158.97 317.477 159.026C317.813 159.082 318.219 159.138 318.695 159.194C319.171 159.222 319.605 159.236 319.997 159.236H320.123V161H309.749V159.236H309.833C310.477 159.236 311.051 159.194 311.555 159.11C312.087 159.026 312.493 158.872 312.773 158.648C313.081 158.424 313.235 158.116 313.235 157.724V133.826C313.235 133.406 313.123 133.084 312.899 132.86C312.675 132.636 312.339 132.454 311.891 132.314C311.471 132.174 310.897 132.048 310.169 131.936L309.707 131.852V130.004H316.973ZM337.624 150.458C337.624 151.858 337.806 153.104 338.17 154.196C338.534 155.26 339.038 156.17 339.682 156.926C340.326 157.682 341.082 158.256 341.95 158.648C342.846 159.012 343.812 159.194 344.848 159.194C345.996 159.194 346.976 158.984 347.788 158.564C348.628 158.116 349.342 157.57 349.93 156.926C350.518 156.254 351.008 155.582 351.4 154.91L353.248 156.506C352.716 157.43 352.044 158.27 351.232 159.026C350.448 159.782 349.524 160.37 348.46 160.79C347.396 161.21 346.15 161.42 344.722 161.42C342.678 161.42 340.83 160.972 339.178 160.076C337.526 159.18 336.224 157.906 335.272 156.254C334.32 154.574 333.844 152.614 333.844 150.374C333.844 148.162 334.292 146.216 335.188 144.536C336.084 142.856 337.302 141.54 338.842 140.588C340.382 139.636 342.09 139.16 343.966 139.16C345.478 139.16 346.808 139.412 347.956 139.916C349.132 140.42 350.112 141.162 350.896 142.142C351.708 143.122 352.324 144.354 352.744 145.838C353.164 147.322 353.374 149.044 353.374 151.004H336.826V148.82H350.602L349.426 149.66C349.398 148.26 349.272 147.042 349.048 146.006C348.824 144.97 348.488 144.116 348.04 143.444C347.592 142.744 347.032 142.226 346.36 141.89C345.688 141.554 344.89 141.386 343.966 141.386C343.07 141.386 342.244 141.596 341.488 142.016C340.732 142.436 340.06 143.038 339.472 143.822C338.884 144.606 338.422 145.558 338.086 146.678C337.778 147.798 337.624 149.058 337.624 150.458ZM369.915 139.286V143.024C369.719 142.94 369.481 142.884 369.201 142.856C368.949 142.8 368.683 142.758 368.403 142.73C368.123 142.702 367.857 142.688 367.605 142.688C366.849 142.688 366.191 142.786 365.631 142.982C365.099 143.178 364.609 143.486 364.161 143.906C363.741 144.326 363.349 144.858 362.985 145.502C362.621 146.118 362.243 146.874 361.851 147.77L361.767 145.25C362.215 144.046 362.747 142.996 363.363 142.1C364.007 141.176 364.749 140.462 365.589 139.958C366.457 139.426 367.423 139.16 368.487 139.16C368.795 139.16 369.075 139.174 369.327 139.202C369.579 139.202 369.775 139.23 369.915 139.286ZM355.257 161V159.236H355.341C356.321 159.236 357.133 159.138 357.777 158.942C358.421 158.746 358.743 158.34 358.743 157.724V143.36C358.743 142.94 358.631 142.632 358.407 142.436C358.183 142.212 357.847 142.03 357.399 141.89C356.951 141.75 356.377 141.61 355.677 141.47L355.257 141.386V139.58H362.145V145.712L362.481 145.334V157.934C362.481 158.326 362.677 158.62 363.069 158.816C363.461 158.984 363.923 159.096 364.455 159.152C364.987 159.208 365.463 159.236 365.883 159.236H366.639V161H355.257Z" fill="black"/>
</svg>

