<svg width="1163" height="165" viewBox="0 0 1163 165" fill="none" xmlns="http://www.w3.org/2000/svg">
<path d="M23.485 1.09091H62.6682L82.4836 82.142H84.0177L130.68 1.09091H169.863L148.13 132H117.32L130.68 51.5881H129.593L84.9765 131.169H65.3529L47.1995 51.1406H46.1128L32.5617 132H1.75202L23.485 1.09091Z" fill="white"/>
<path d="M167.132 23.9105V1.09091H274.646V23.9105H234.568V132H207.21V23.9105H167.132Z" fill="black"/>
<rect x="238" y="79" width="17" height="52" fill="#0FA958"/>
<rect x="267" y="49" width="16" height="82" fill="#0FA958"/>
<rect x="296" y="36" width="16" height="95" fill="#0FA958"/>
<rect x="325" y="79" width="16" height="52" fill="#F24E1E"/>
<rect x="354" width="16" height="131" fill="#0FA958"/>
<path d="M377.101 131V127.67H378.091C379.411 127.67 380.581 127.52 381.601 127.22C382.681 126.92 383.551 126.44 384.211 125.78C384.871 125.06 385.201 124.13 385.201 122.99V73.67C385.201 72.77 384.871 72.11 384.211 71.69C383.551 71.21 382.681 70.88 381.601 70.7C380.581 70.52 379.411 70.43 378.091 70.43H377.101V67.1H397.081L415.531 124.52L413.911 124.43L433.171 67.1H452.971V70.43H452.251C450.211 70.43 448.471 70.64 447.031 71.06C445.591 71.48 444.871 72.35 444.871 73.67V124.43C444.871 125.75 445.591 126.62 447.031 127.04C448.471 127.46 450.211 127.67 452.251 127.67H452.971V131H428.761V127.67H429.571C430.651 127.67 431.701 127.64 432.721 127.58C433.801 127.52 434.701 127.43 435.421 127.31C436.141 127.13 436.501 126.95 436.501 126.77V68.09L437.401 68.27L415.891 131.18H410.401L388.891 68.27H389.881V125.51C389.881 126.05 390.211 126.5 390.871 126.86C391.591 127.16 392.491 127.37 393.571 127.49C394.651 127.61 395.761 127.67 396.901 127.67H397.891V131H377.101ZM503.828 107.96C503.828 112.64 502.808 116.78 500.768 120.38C498.728 123.98 495.938 126.8 492.398 128.84C488.858 130.88 484.808 131.9 480.248 131.9C475.748 131.9 471.698 130.91 468.098 128.93C464.558 126.89 461.768 124.07 459.728 120.47C457.688 116.81 456.668 112.64 456.668 107.96C456.668 104.42 457.238 101.18 458.378 98.24C459.578 95.3 461.228 92.78 463.328 90.68C465.488 88.52 467.978 86.84 470.798 85.64C473.678 84.44 476.828 83.84 480.248 83.84C483.668 83.84 486.788 84.44 489.608 85.64C492.488 86.78 494.978 88.43 497.078 90.59C499.238 92.75 500.888 95.3 502.028 98.24C503.228 101.18 503.828 104.42 503.828 107.96ZM465.128 107.96C465.128 111.92 465.728 115.43 466.928 118.49C468.128 121.49 469.838 123.83 472.058 125.51C474.338 127.19 477.068 128.03 480.248 128.03C483.488 128.03 486.218 127.19 488.438 125.51C490.658 123.83 492.368 121.49 493.568 118.49C494.768 115.43 495.368 111.92 495.368 107.96C495.368 103.94 494.768 100.4 493.568 97.34C492.368 94.28 490.658 91.91 488.438 90.23C486.218 88.55 483.488 87.71 480.248 87.71C477.068 87.71 474.338 88.58 472.058 90.32C469.838 92 468.128 94.37 466.928 97.43C465.728 100.43 465.128 103.94 465.128 107.96ZM508.008 131V127.67H508.188C510.228 127.67 511.908 127.46 513.228 127.04C514.608 126.62 515.298 125.75 515.298 124.43V92.3C515.298 91.4 515.058 90.74 514.578 90.32C514.158 89.84 513.468 89.45 512.508 89.15C511.608 88.85 510.438 88.55 508.998 88.25L508.008 88.07V84.74H522.588V94.01L523.308 95.09V126.77C523.308 126.95 523.638 127.13 524.298 127.31C525.018 127.43 525.858 127.52 526.818 127.58C527.778 127.64 528.648 127.67 529.428 127.67H529.518V131H508.008ZM556.518 131H535.998V127.67H536.178C537.018 127.67 537.888 127.64 538.788 127.58C539.748 127.52 540.558 127.43 541.218 127.31C541.938 127.13 542.298 126.95 542.298 126.77V98.87C542.298 96.35 542.088 94.31 541.668 92.75C541.248 91.19 540.528 90.05 539.508 89.33C538.548 88.61 537.228 88.25 535.548 88.25C533.688 88.25 531.948 88.7 530.328 89.6C528.768 90.5 527.268 91.79 525.828 93.47C524.448 95.15 523.068 97.22 521.688 99.68L520.878 95.63C522.438 93.17 523.998 91.07 525.558 89.33C527.118 87.59 528.828 86.24 530.688 85.28C532.608 84.32 534.828 83.84 537.348 83.84C539.928 83.84 542.178 84.35 544.098 85.37C546.018 86.39 547.518 87.98 548.598 90.14C549.738 92.24 550.308 94.97 550.308 98.33V126.77C550.308 126.95 550.638 127.13 551.298 127.31C552.018 127.43 552.858 127.52 553.818 127.58C554.778 127.64 555.648 127.67 556.428 127.67H556.518V131ZM584.688 131H563.088V127.67H563.268C564.048 127.67 564.888 127.64 565.788 127.58C566.748 127.52 567.558 127.43 568.218 127.31C568.938 127.19 569.298 127.01 569.298 126.77V98.87C569.298 96.35 569.088 94.31 568.668 92.75C568.248 91.19 567.528 90.05 566.508 89.33C565.548 88.61 564.228 88.25 562.548 88.25C560.748 88.25 559.038 88.7 557.418 89.6C555.798 90.5 554.268 91.79 552.828 93.47C551.448 95.15 550.068 97.22 548.688 99.68L547.878 95.63C549.438 93.17 550.998 91.07 552.558 89.33C554.118 87.59 555.828 86.24 557.688 85.28C559.608 84.32 561.828 83.84 564.348 83.84C566.868 83.84 569.088 84.35 571.008 85.37C572.928 86.39 574.458 87.98 575.598 90.14C576.738 92.24 577.308 94.97 577.308 98.33V124.43C577.308 125.75 577.968 126.62 579.288 127.04C580.668 127.46 582.378 127.67 584.418 127.67H584.688V131ZM595.689 108.32C595.689 111.44 596.079 114.23 596.859 116.69C597.639 119.15 598.749 121.22 600.189 122.9C601.629 124.58 603.309 125.87 605.229 126.77C607.149 127.61 609.249 128.03 611.529 128.03C613.989 128.03 616.119 127.58 617.919 126.68C619.779 125.78 621.369 124.64 622.689 123.26C624.009 121.82 625.119 120.29 626.019 118.67L629.259 121.46C628.119 123.5 626.679 125.33 624.939 126.95C623.199 128.51 621.159 129.74 618.819 130.64C616.539 131.48 613.959 131.9 611.079 131.9C606.759 131.9 602.799 130.94 599.199 129.02C595.659 127.04 592.809 124.28 590.649 120.74C588.549 117.14 587.499 112.94 587.499 108.14C587.499 103.34 588.489 99.11 590.469 95.45C592.449 91.79 595.089 88.94 598.389 86.9C601.749 84.86 605.499 83.84 609.639 83.84C612.759 83.84 615.549 84.38 618.009 85.46C620.469 86.48 622.539 88.01 624.219 90.05C625.959 92.09 627.279 94.64 628.179 97.7C629.079 100.7 629.529 104.18 629.529 108.14H593.619L593.529 104.45H623.859L621.339 105.8C621.279 102.8 621.009 100.19 620.529 97.97C620.049 95.69 619.299 93.8 618.279 92.3C617.319 90.8 616.119 89.66 614.679 88.88C613.239 88.1 611.559 87.71 609.639 87.71C607.599 87.71 605.709 88.19 603.969 89.15C602.289 90.11 600.819 91.49 599.559 93.29C598.359 95.03 597.399 97.19 596.679 99.77C596.019 102.29 595.689 105.14 595.689 108.32ZM633.302 131V127.67H633.482C634.802 127.67 636.002 127.58 637.082 127.4C638.162 127.22 639.002 126.89 639.602 126.41C640.262 125.93 640.592 125.27 640.592 124.43V92.3C640.592 91.4 640.352 90.74 639.872 90.32C639.452 89.84 638.762 89.45 637.802 89.15C636.902 88.85 635.732 88.55 634.292 88.25L633.302 88.07V84.74H647.882V94.28L648.602 95.18V126.77C648.602 126.95 648.932 127.13 649.592 127.31C650.312 127.43 651.152 127.52 652.112 127.58C653.132 127.64 654.122 127.67 655.082 127.67H655.262V131H633.302ZM685.502 131H663.632V127.67H663.722C664.562 127.67 665.492 127.64 666.512 127.58C667.532 127.52 668.402 127.43 669.122 127.31C669.902 127.13 670.292 126.95 670.292 126.77V98.78C670.292 96.26 669.992 94.22 669.392 92.66C668.852 91.1 668.012 89.99 666.872 89.33C665.732 88.61 664.232 88.25 662.372 88.25C660.272 88.25 658.322 88.7 656.522 89.6C654.782 90.44 653.132 91.73 651.572 93.47C650.012 95.15 648.482 97.22 646.982 99.68L646.172 95.72C647.852 93.2 649.562 91.07 651.302 89.33C653.042 87.53 654.932 86.18 656.972 85.28C659.072 84.32 661.472 83.84 664.172 83.84C667.052 83.84 669.542 84.38 671.642 85.46C673.742 86.48 675.362 88.07 676.502 90.23C677.702 92.33 678.302 95.03 678.302 98.33V124.43C678.302 125.27 678.602 125.93 679.202 126.41C679.802 126.89 680.642 127.22 681.722 127.4C682.802 127.58 684.032 127.67 685.412 127.67H685.502V131ZM685.751 88.61V85.1H686.111C687.971 85.1 689.531 84.92 690.791 84.56C692.111 84.2 693.101 83.6 693.761 82.76C694.481 81.92 694.871 80.78 694.931 79.34L699.161 84.74H714.281V88.61H685.751ZM701.501 117.05C701.501 119.63 701.831 121.73 702.491 123.35C703.151 124.91 704.051 126.05 705.191 126.77C706.391 127.43 707.771 127.76 709.331 127.76C710.771 127.76 712.031 127.61 713.111 127.31C714.191 126.95 715.001 126.68 715.541 126.5V130.46C715.001 130.7 714.341 130.94 713.561 131.18C712.781 131.42 711.941 131.6 711.041 131.72C710.201 131.84 709.271 131.9 708.251 131.9C705.611 131.9 703.151 131.45 700.871 130.55C698.651 129.59 696.851 128.03 695.471 125.87C694.151 123.65 693.491 120.68 693.491 116.96V85.19L694.661 84.74L695.201 72.77H701.501V117.05ZM732.203 84.74V116.96C732.203 119.48 732.473 121.52 733.013 123.08C733.613 124.64 734.483 125.78 735.623 126.5C736.763 127.22 738.233 127.58 740.033 127.58C742.073 127.58 743.963 127.13 745.703 126.23C747.443 125.33 749.093 124.04 750.653 122.36C752.213 120.68 753.713 118.64 755.153 116.24L755.963 120.11C754.343 122.63 752.663 124.76 750.923 126.5C749.243 128.24 747.383 129.59 745.343 130.55C743.303 131.45 740.933 131.9 738.233 131.9C735.413 131.9 732.953 131.39 730.853 130.37C728.753 129.29 727.103 127.67 725.903 125.51C724.763 123.35 724.193 120.65 724.193 117.41V92.3C724.193 90.98 723.683 90.08 722.663 89.6C721.703 89.06 720.113 88.61 717.893 88.25L716.813 88.07V84.74H732.203ZM761.543 84.74V124.43C761.543 125.27 761.843 125.93 762.443 126.41C763.043 126.89 763.883 127.22 764.963 127.4C766.043 127.58 767.273 127.67 768.653 127.67H768.923V131H754.253V121.82L753.533 120.65V92.3C753.533 90.98 752.993 90.05 751.913 89.51C750.833 88.97 749.183 88.58 746.963 88.34L744.983 88.07V84.74H761.543ZM771.1 131V127.67H771.28C773.32 127.67 775 127.46 776.32 127.04C777.7 126.62 778.39 125.75 778.39 124.43V92.3C778.39 91.4 778.15 90.74 777.67 90.32C777.25 89.84 776.56 89.45 775.6 89.15C774.7 88.85 773.53 88.55 772.09 88.25L771.1 88.07V84.74H785.68V94.01L786.4 95.09V126.77C786.4 126.95 786.73 127.13 787.39 127.31C788.11 127.43 788.95 127.52 789.91 127.58C790.87 127.64 791.74 127.67 792.52 127.67H792.61V131H771.1ZM819.61 131H799.09V127.67H799.27C800.11 127.67 800.98 127.64 801.88 127.58C802.84 127.52 803.65 127.43 804.31 127.31C805.03 127.13 805.39 126.95 805.39 126.77V98.87C805.39 96.35 805.18 94.31 804.76 92.75C804.34 91.19 803.62 90.05 802.6 89.33C801.64 88.61 800.32 88.25 798.64 88.25C796.78 88.25 795.04 88.7 793.42 89.6C791.86 90.5 790.36 91.79 788.92 93.47C787.54 95.15 786.16 97.22 784.78 99.68L783.97 95.63C785.53 93.17 787.09 91.07 788.65 89.33C790.21 87.59 791.92 86.24 793.78 85.28C795.7 84.32 797.92 83.84 800.44 83.84C803.02 83.84 805.27 84.35 807.19 85.37C809.11 86.39 810.61 87.98 811.69 90.14C812.83 92.24 813.4 94.97 813.4 98.33V126.77C813.4 126.95 813.73 127.13 814.39 127.31C815.11 127.43 815.95 127.52 816.91 127.58C817.87 127.64 818.74 127.67 819.52 127.67H819.61V131ZM847.78 131H826.18V127.67H826.36C827.14 127.67 827.98 127.64 828.88 127.58C829.84 127.52 830.65 127.43 831.31 127.31C832.03 127.19 832.39 127.01 832.39 126.77V98.87C832.39 96.35 832.18 94.31 831.76 92.75C831.34 91.19 830.62 90.05 829.6 89.33C828.64 88.61 827.32 88.25 825.64 88.25C823.84 88.25 822.13 88.7 820.51 89.6C818.89 90.5 817.36 91.79 815.92 93.47C814.54 95.15 813.16 97.22 811.78 99.68L810.97 95.63C812.53 93.17 814.09 91.07 815.65 89.33C817.21 87.59 818.92 86.24 820.78 85.28C822.7 84.32 824.92 83.84 827.44 83.84C829.96 83.84 832.18 84.35 834.1 85.37C836.02 86.39 837.55 87.98 838.69 90.14C839.83 92.24 840.4 94.97 840.4 98.33V124.43C840.4 125.75 841.06 126.62 842.38 127.04C843.76 127.46 845.47 127.67 847.51 127.67H847.78V131ZM871.741 124.43V71.06H866.341C863.761 71.06 861.661 71.21 860.041 71.51C858.421 71.75 857.221 72.2 856.441 72.86C855.661 73.52 855.181 74.42 855.001 75.56L853.651 84.11H849.961V67.1H901.891V84.11H898.201L896.941 75.56C896.761 74.42 896.251 73.52 895.411 72.86C894.631 72.2 893.431 71.75 891.811 71.51C890.191 71.21 888.091 71.06 885.511 71.06H880.111V124.43C880.111 125.75 880.831 126.62 882.271 127.04C883.771 127.46 885.511 127.67 887.491 127.67H888.931V131H862.921V127.67H864.361C866.401 127.67 868.141 127.46 869.581 127.04C871.021 126.62 871.741 125.75 871.741 124.43ZM936.237 84.11V91.94C935.817 91.82 935.337 91.73 934.797 91.67C934.257 91.55 933.657 91.46 932.997 91.4C932.397 91.28 931.767 91.22 931.107 91.22C929.607 91.22 928.287 91.46 927.147 91.94C926.007 92.36 924.987 92.99 924.087 93.83C923.187 94.67 922.347 95.78 921.567 97.16C920.847 98.48 920.067 100.07 919.227 101.93L918.687 97.61C919.827 94.85 921.087 92.45 922.467 90.41C923.847 88.37 925.437 86.78 927.237 85.64C929.037 84.44 931.047 83.84 933.267 83.84C933.867 83.84 934.437 83.87 934.977 83.93C935.517 83.93 935.937 83.99 936.237 84.11ZM905.007 131V127.67H905.187C907.227 127.67 908.907 127.46 910.227 127.04C911.607 126.62 912.297 125.75 912.297 124.43V92.3C912.297 91.4 912.057 90.74 911.577 90.32C911.157 89.84 910.467 89.45 909.507 89.15C908.607 88.85 907.437 88.55 905.997 88.25L905.007 88.07V84.74H919.587V97.52L920.307 96.71V125.87C920.307 126.35 920.667 126.74 921.387 127.04C922.167 127.28 923.097 127.46 924.177 127.58C925.317 127.64 926.427 127.67 927.507 127.67H929.217V131H905.007ZM969.84 103.55L969.75 107.15C966.69 107.39 963.96 107.75 961.56 108.23C959.16 108.71 957.09 109.31 955.35 110.03C953.61 110.75 952.17 111.59 951.03 112.55C949.89 113.45 949.05 114.53 948.51 115.79C947.97 116.99 947.7 118.34 947.7 119.84C947.7 121.58 948.03 123.05 948.69 124.25C949.35 125.45 950.28 126.38 951.48 127.04C952.68 127.64 954.06 127.94 955.62 127.94C957.78 127.94 959.67 127.49 961.29 126.59C962.91 125.63 964.32 124.31 965.52 122.63C966.78 120.95 967.86 119 968.76 116.78L969.84 120.02C968.82 122.48 967.53 124.61 965.97 126.41C964.47 128.15 962.67 129.5 960.57 130.46C958.53 131.42 956.22 131.9 953.64 131.9C951.06 131.9 948.69 131.42 946.53 130.46C944.43 129.5 942.75 128.12 941.49 126.32C940.23 124.52 939.6 122.39 939.6 119.93C939.6 117.47 940.23 115.34 941.49 113.54C942.81 111.74 944.73 110.21 947.25 108.95C949.83 107.63 953.01 106.55 956.79 105.71C960.57 104.81 964.92 104.09 969.84 103.55ZM968.13 131V121.82H967.32V98.78C967.32 96.02 966.96 93.86 966.24 92.3C965.58 90.68 964.53 89.51 963.09 88.79C961.71 88.07 960 87.71 957.96 87.71C954.84 87.71 952.29 88.37 950.31 89.69C948.33 90.95 946.71 92.48 945.45 94.28C945.51 93.38 945.63 92.57 945.81 91.85C946.05 91.13 946.38 90.5 946.8 89.96C947.22 89.42 947.7 89.03 948.24 88.79C948.78 88.49 949.35 88.31 949.95 88.25V97.79H942.39V89.15C943.29 88.43 944.49 87.68 945.99 86.9C947.55 86.06 949.38 85.34 951.48 84.74C953.64 84.14 956.01 83.84 958.59 83.84C960.93 83.84 963.09 84.11 965.07 84.65C967.11 85.19 968.88 86.03 970.38 87.17C971.94 88.31 973.14 89.81 973.98 91.67C974.82 93.47 975.24 95.66 975.24 98.24V124.43C975.24 125.27 975.54 125.93 976.14 126.41C976.8 126.89 977.64 127.22 978.66 127.4C979.74 127.58 980.97 127.67 982.35 127.67V131H968.13ZM1008.38 128.03C1010.96 128.03 1013.18 127.58 1015.04 126.68C1016.9 125.78 1018.52 124.61 1019.9 123.17C1021.28 121.73 1022.45 120.2 1023.41 118.58L1026.56 121.28C1025.3 123.38 1023.77 125.24 1021.97 126.86C1020.23 128.42 1018.19 129.65 1015.85 130.55C1013.57 131.45 1010.93 131.9 1007.93 131.9C1003.37 131.9 999.288 130.88 995.688 128.84C992.148 126.74 989.358 123.89 987.318 120.29C985.278 116.69 984.258 112.55 984.258 107.87C984.258 103.13 985.278 98.96 987.318 95.36C989.418 91.76 992.298 88.94 995.958 86.9C999.678 84.86 1003.94 83.84 1008.74 83.84C1011.44 83.84 1013.9 84.14 1016.12 84.74C1018.34 85.34 1020.26 86.06 1021.88 86.9C1023.56 87.74 1024.85 88.55 1025.75 89.33V99.32H1018.1V89.15C1018.7 89.21 1019.27 89.39 1019.81 89.69C1020.35 89.93 1020.8 90.32 1021.16 90.86C1021.58 91.34 1021.88 91.88 1022.06 92.48C1022.24 93.08 1022.27 93.71 1022.15 94.37C1021.07 92.57 1019.33 91.01 1016.93 89.69C1014.59 88.37 1011.86 87.71 1008.74 87.71C1005.2 87.71 1002.23 88.58 999.828 90.32C997.488 92 995.718 94.37 994.518 97.43C993.318 100.43 992.718 103.91 992.718 107.87C992.718 110.87 993.048 113.6 993.708 116.06C994.428 118.52 995.448 120.65 996.768 122.45C998.088 124.25 999.708 125.63 1001.63 126.59C1003.61 127.55 1005.86 128.03 1008.38 128.03ZM1080.65 131H1058.69V127.67H1058.78C1059.44 127.67 1060.22 127.64 1061.12 127.58C1062.08 127.52 1062.89 127.4 1063.55 127.22C1064.27 127.04 1064.63 126.86 1064.63 126.68L1047.08 106.61V106.16L1064.45 89.96C1064.45 89.48 1064.09 89.12 1063.37 88.88C1062.71 88.64 1061.87 88.46 1060.85 88.34C1059.89 88.16 1058.93 88.07 1057.97 88.07H1057.16V84.74H1077.41V88.07H1077.23C1076.33 88.07 1075.31 88.22 1074.17 88.52C1073.03 88.76 1071.89 89.21 1070.75 89.87C1069.61 90.47 1068.5 91.28 1067.42 92.3L1052.84 105.89L1053.29 102.38L1072.82 124.43C1073.6 125.21 1074.44 125.84 1075.34 126.32C1076.24 126.8 1077.14 127.16 1078.04 127.4C1078.94 127.58 1079.75 127.67 1080.47 127.67H1080.65V131ZM1045.19 64.13V126.77C1045.19 126.95 1045.52 127.13 1046.18 127.31C1046.9 127.43 1047.74 127.52 1048.7 127.58C1049.72 127.64 1050.71 127.67 1051.67 127.67H1051.76V131H1029.89V127.67H1029.98C1031.36 127.67 1032.59 127.58 1033.67 127.4C1034.75 127.22 1035.59 126.89 1036.19 126.41C1036.85 125.93 1037.18 125.27 1037.18 124.43V71.69C1037.18 70.79 1036.94 70.1 1036.46 69.62C1035.98 69.14 1035.26 68.75 1034.3 68.45C1033.4 68.15 1032.23 67.88 1030.79 67.64L1029.8 67.46V64.13H1045.19ZM1088.3 108.32C1088.3 111.44 1088.69 114.23 1089.47 116.69C1090.25 119.15 1091.36 121.22 1092.8 122.9C1094.24 124.58 1095.92 125.87 1097.84 126.77C1099.76 127.61 1101.86 128.03 1104.14 128.03C1106.6 128.03 1108.73 127.58 1110.53 126.68C1112.39 125.78 1113.98 124.64 1115.3 123.26C1116.62 121.82 1117.73 120.29 1118.63 118.67L1121.87 121.46C1120.73 123.5 1119.29 125.33 1117.55 126.95C1115.81 128.51 1113.77 129.74 1111.43 130.64C1109.15 131.48 1106.57 131.9 1103.69 131.9C1099.37 131.9 1095.41 130.94 1091.81 129.02C1088.27 127.04 1085.42 124.28 1083.26 120.74C1081.16 117.14 1080.11 112.94 1080.11 108.14C1080.11 103.34 1081.1 99.11 1083.08 95.45C1085.06 91.79 1087.7 88.94 1091 86.9C1094.36 84.86 1098.11 83.84 1102.25 83.84C1105.37 83.84 1108.16 84.38 1110.62 85.46C1113.08 86.48 1115.15 88.01 1116.83 90.05C1118.57 92.09 1119.89 94.64 1120.79 97.7C1121.69 100.7 1122.14 104.18 1122.14 108.14H1086.23L1086.14 104.45H1116.47L1113.95 105.8C1113.89 102.8 1113.62 100.19 1113.14 97.97C1112.66 95.69 1111.91 93.8 1110.89 92.3C1109.93 90.8 1108.73 89.66 1107.29 88.88C1105.85 88.1 1104.17 87.71 1102.25 87.71C1100.21 87.71 1098.32 88.19 1096.58 89.15C1094.9 90.11 1093.43 91.49 1092.17 93.29C1090.97 95.03 1090.01 97.19 1089.29 99.77C1088.63 102.29 1088.3 105.14 1088.3 108.32ZM1157.14 84.11V91.94C1156.72 91.82 1156.24 91.73 1155.7 91.67C1155.16 91.55 1154.56 91.46 1153.9 91.4C1153.3 91.28 1152.67 91.22 1152.01 91.22C1150.51 91.22 1149.19 91.46 1148.05 91.94C1146.91 92.36 1145.89 92.99 1144.99 93.83C1144.09 94.67 1143.25 95.78 1142.47 97.16C1141.75 98.48 1140.97 100.07 1140.13 101.93L1139.59 97.61C1140.73 94.85 1141.99 92.45 1143.37 90.41C1144.75 88.37 1146.34 86.78 1148.14 85.64C1149.94 84.44 1151.95 83.84 1154.17 83.84C1154.77 83.84 1155.34 83.87 1155.88 83.93C1156.42 83.93 1156.84 83.99 1157.14 84.11ZM1125.91 131V127.67H1126.09C1128.13 127.67 1129.81 127.46 1131.13 127.04C1132.51 126.62 1133.2 125.75 1133.2 124.43V92.3C1133.2 91.4 1132.96 90.74 1132.48 90.32C1132.06 89.84 1131.37 89.45 1130.41 89.15C1129.51 88.85 1128.34 88.55 1126.9 88.25L1125.91 88.07V84.74H1140.49V97.52L1141.21 96.71V125.87C1141.21 126.35 1141.57 126.74 1142.29 127.04C1143.07 127.28 1144 127.46 1145.08 127.58C1146.22 127.64 1147.33 127.67 1148.41 127.67H1150.12V131H1125.91Z" fill="white"/>
</svg>
